<svg xmlns="http://www.w3.org/2000/svg" width="1200" height="675" viewBox="0 0 1200 675" font-family="ui-monospace, Menlo, Consolas, monospace">
  <defs>
    <pattern id="grid" width="40" height="40" patternUnits="userSpaceOnUse">
      <path d="M40 0H0V40" fill="none" stroke="#38e1ff" stroke-opacity="0.05"/>
    </pattern>
  </defs>

  <rect width="1200" height="675" fill="#0b0e16"/>
  <rect width="1200" height="675" fill="url(#grid)"/>

  <rect x="24" y="24" width="1152" height="627" fill="none" stroke="#1e2740"/>
  <path d="M24 64V24H64" fill="none" stroke="#38e1ff" stroke-opacity="0.5" stroke-width="2"/>
  <path d="M1136 24H1176V64" fill="none" stroke="#38e1ff" stroke-opacity="0.5" stroke-width="2"/>
  <path d="M1176 611V651H1136" fill="none" stroke="#38e1ff" stroke-opacity="0.5" stroke-width="2"/>
  <path d="M64 651H24V611" fill="none" stroke="#38e1ff" stroke-opacity="0.5" stroke-width="2"/>

  <!-- motif: fleet dot-matrix + live telemetry trace -->
  <g transform="translate(620,200)">
    <g fill="#38e1ff">
      <!-- 8x4 device matrix, a few amber/off -->
      <g opacity="0.85">
        <circle cx="0" cy="0" r="5"/><circle cx="60" cy="0" r="5"/><circle cx="120" cy="0" r="5"/><circle cx="180" cy="0" r="5"/><circle cx="240" cy="0" r="5"/><circle cx="300" cy="0" r="5" fill="#ffb547"/><circle cx="360" cy="0" r="5"/><circle cx="420" cy="0" r="5"/>
        <circle cx="0" cy="56" r="5"/><circle cx="60" cy="56" r="5"/><circle cx="120" cy="56" r="5" fill="#1e2740"/><circle cx="180" cy="56" r="5"/><circle cx="240" cy="56" r="5"/><circle cx="300" cy="56" r="5"/><circle cx="360" cy="56" r="5"/><circle cx="420" cy="56" r="5"/>
        <circle cx="0" cy="112" r="5"/><circle cx="60" cy="112" r="5"/><circle cx="120" cy="112" r="5"/><circle cx="180" cy="112" r="5" fill="#ffb547"/><circle cx="240" cy="112" r="5"/><circle cx="300" cy="112" r="5"/><circle cx="360" cy="112" r="5"/><circle cx="420" cy="112" r="5"/>
        <circle cx="0" cy="168" r="5"/><circle cx="60" cy="168" r="5"/><circle cx="120" cy="168" r="5"/><circle cx="180" cy="168" r="5"/><circle cx="240" cy="168" r="5"/><circle cx="300" cy="168" r="5"/><circle cx="360" cy="168" r="5"/><circle cx="420" cy="168" r="5"/>
      </g>
    </g>
    <!-- telemetry trace -->
    <polyline points="0,290 60,265 120,278 180,230 240,252 300,210 360,238 420,205"
      fill="none" stroke="#38e1ff" stroke-width="2"/>
    <polyline points="0,290 60,265 120,278 180,230 240,252 300,210 360,238 420,205"
      fill="none" stroke="#38e1ff" stroke-opacity="0.18" stroke-width="10"/>
    <line x1="0" y1="320" x2="420" y2="320" stroke="#1e2740"/>
    <text x="0" y="345" fill="#5c6680" font-size="12" letter-spacing="2">WS LATENCY &lt; 1S · 200+ DEVICES LIVE</text>
  </g>

  <text x="64" y="96" fill="#38e1ff" font-size="26" letter-spacing="6">M-002</text>
  <text x="64" y="130" fill="#a9b2c7" font-size="15" letter-spacing="3">PANEL DE CONTROL DE FLOTA</text>
  <text x="64" y="156" fill="#5c6680" font-size="13" letter-spacing="2">NESTJS · ANGULAR · MONGODB</text>

  <text x="64" y="615" fill="#5c6680" font-size="12" letter-spacing="3">BG-01 STATION ARCHIVE · STATUS: COMPLETED</text>
  <text x="1136" y="615" fill="#38e1ff" font-size="12" letter-spacing="3" text-anchor="end" opacity="0.6">REALTIME TELEMETRY</text>
</svg>
