<svg xmlns="http://www.w3.org/2000/svg" width="1200" height="630" viewBox="0 0 1200 630" font-family="ui-monospace, Menlo, Consolas, monospace">
  <defs>
    <pattern id="grid" width="40" height="40" patternUnits="userSpaceOnUse">
      <path d="M40 0H0V40" fill="none" stroke="#38e1ff" stroke-opacity="0.05"/>
    </pattern>
    <radialGradient id="neb" cx="20%" cy="10%" r="70%">
      <stop offset="0%" stop-color="#38e1ff" stop-opacity="0.12"/>
      <stop offset="100%" stop-color="#38e1ff" stop-opacity="0"/>
    </radialGradient>
  </defs>

  <rect width="1200" height="630" fill="#05060a"/>
  <rect width="1200" height="630" fill="url(#neb)"/>
  <rect width="1200" height="630" fill="url(#grid)"/>

  <!-- stars -->
  <g fill="#e8ecf4">
    <circle cx="150" cy="90" r="1.6" opacity="0.8"/><circle cx="980" cy="60" r="1.2" opacity="0.6"/>
    <circle cx="1100" cy="180" r="1.8" opacity="0.9"/><circle cx="300" cy="500" r="1.2" opacity="0.5"/>
    <circle cx="720" cy="120" r="1.4" opacity="0.7"/><circle cx="870" cy="420" r="1.6" opacity="0.6"/>
    <circle cx="520" cy="60" r="1.1" opacity="0.5"/><circle cx="1060" cy="540" r="1.3" opacity="0.7"/>
  </g>
  <circle cx="940" cy="300" r="2.4" fill="#7defff"/>

  <!-- HUD frame -->
  <path d="M40 92V40H92" fill="none" stroke="#38e1ff" stroke-opacity="0.6" stroke-width="3"/>
  <path d="M1108 40H1160V92" fill="none" stroke="#38e1ff" stroke-opacity="0.6" stroke-width="3"/>
  <path d="M1160 538V590H1108" fill="none" stroke="#38e1ff" stroke-opacity="0.6" stroke-width="3"/>
  <path d="M92 590H40V538" fill="none" stroke="#38e1ff" stroke-opacity="0.6" stroke-width="3"/>

  <text x="76" y="120" fill="#38e1ff" font-size="20" letter-spacing="6">▸ CONEXIÓN ESTABLECIDA CON BG-01</text>

  <text x="74" y="260" fill="#e8ecf4" font-size="84" letter-spacing="4" font-weight="bold">BRAYAN GÓMEZ</text>
  <text x="76" y="324" fill="#38e1ff" font-size="30" letter-spacing="8">BACKEND DEVELOPER · ARQUITECTO DE SISTEMAS</text>

  <!-- stack chips -->
  <g font-size="18" fill="#a9b2c7">
    <rect x="74" y="380" width="70" height="44" fill="none" stroke="#2c3658"/><text x="109" y="408" text-anchor="middle">GO</text>
    <rect x="160" y="380" width="120" height="44" fill="none" stroke="#2c3658"/><text x="220" y="408" text-anchor="middle">NESTJS</text>
    <rect x="296" y="380" width="180" height="44" fill="none" stroke="#2c3658"/><text x="386" y="408" text-anchor="middle">TYPESCRIPT</text>
    <rect x="492" y="380" width="150" height="44" fill="none" stroke="#2c3658"/><text x="567" y="408" text-anchor="middle">MONGODB</text>
    <rect x="658" y="380" width="86" height="44" fill="none" stroke="#2c3658"/><text x="701" y="408" text-anchor="middle">AWS</text>
  </g>

  <text x="76" y="556" fill="#5c6680" font-size="16" letter-spacing="4">BG-01 SPACE STATION · PORTAFOLIO INMERSIVO · 5+ AÑOS DE VUELO</text>
  <text x="1124" y="556" fill="#4ade80" font-size="16" letter-spacing="4" text-anchor="end">● ONLINE</text>
</svg>
